<?xml version="1.0" encoding="iso-8859-1"?>
<!-- Uploaded to: SVG Repo, www.svgrepo.com, Generator: SVG Repo Mixer Tools -->
<svg height="800px" width="800px" version="1.1" id="Layer_1" xmlns="http://www.w3.org/2000/svg" xmlns:xlink="http://www.w3.org/1999/xlink" 
	 viewBox="0 0 392.533 392.533" xml:space="preserve">
<path style="fill:#FFFFFF;" d="M196.267,21.786c-96.194,0-174.481,78.287-174.481,174.481s78.287,174.481,174.481,174.481
	s174.481-78.287,174.481-174.481S292.461,21.786,196.267,21.786z"/>
<path style="fill:#FFC10D;" d="M196.267,348.962c-84.17,0-152.695-68.461-152.695-152.695S112.097,43.572,196.267,43.572
	s152.695,68.525,152.695,152.695S280.436,348.962,196.267,348.962z"/>
<path style="fill:#194F82;" d="M196.267,0C87.984,0,0,87.984,0,196.267s87.984,196.267,196.267,196.267
	s196.267-87.984,196.267-196.267S304.549,0,196.267,0z M139.83,31.224c-11.96,14.675-22.174,34.069-29.931,56.889
	c-13.834-3.814-26.57-8.469-38.012-13.964C90.699,54.949,113.907,40.081,139.83,31.224z M57.147,91.087
	c13.77,7.176,29.414,13.123,46.545,17.842c-5.883,23.079-9.503,48.937-10.214,76.412H22.174
	C24.307,150.109,37.107,117.657,57.147,91.087z M57.147,301.446c-20.105-26.505-32.776-58.958-34.974-94.255h71.24
	c0.776,27.41,4.331,53.269,10.214,76.412C86.626,288.194,70.917,294.271,57.147,301.446z M71.887,318.448
	c11.442-5.56,24.178-10.214,38.012-13.964c7.822,22.885,18.101,42.214,30.061,56.954C113.972,352.453,90.699,337.584,71.887,318.448
	z M185.341,369.067c-21.851-6.659-41.244-32.711-54.109-69.56c17.067-3.297,35.297-5.301,54.109-5.883V369.067z M185.341,271.774
	c-20.945,0.646-41.244,2.844-60.444,6.723c-5.56-21.657-8.986-45.834-9.762-71.305h70.141v64.582H185.341z M185.341,185.341H115.2
	c0.776-25.471,4.267-49.778,9.762-71.305c19.071,3.879,39.499,6.077,60.444,6.723v64.582H185.341z M185.341,98.909
	c-18.747-0.517-37.042-2.521-54.109-5.883c12.8-36.848,32.194-62.901,54.109-69.56V98.909z M335.386,91.087
	c20.105,26.57,32.84,59.022,34.974,94.255h-71.24c-0.776-27.539-4.331-53.333-10.214-76.412
	C305.907,104.21,321.616,98.263,335.386,91.087z M320.646,74.085c-11.442,5.56-24.178,10.214-38.012,13.964
	c-7.822-22.82-17.907-42.214-29.931-56.889C278.626,40.081,301.834,54.949,320.646,74.085z M207.192,23.467
	c21.851,6.659,41.244,32.711,54.109,69.56c-17.067,3.297-35.297,5.236-54.109,5.883L207.192,23.467L207.192,23.467z
	 M207.192,120.695c20.945-0.646,41.244-2.844,60.444-6.723c5.56,21.657,8.986,45.834,9.762,71.305h-70.206V120.695L207.192,120.695z
	 M207.192,207.192h70.141c-0.776,25.471-4.267,49.713-9.762,71.305c-19.135-3.879-39.499-6.077-60.444-6.723L207.192,207.192
	L207.192,207.192z M207.192,369.067v-75.442c18.747,0.517,37.042,2.521,54.109,5.883
	C248.436,336.356,229.042,362.408,207.192,369.067z M252.574,361.309c12.024-14.739,22.238-34.069,30.061-56.954
	c13.834,3.814,26.57,8.469,38.012,13.964C301.834,337.584,278.562,352.453,252.574,361.309z M335.386,301.446
	c-13.77-7.176-29.414-13.123-46.416-17.842c5.883-23.079,9.438-48.937,10.214-76.412h71.24
	C368.226,242.424,355.556,274.877,335.386,301.446z"/>
</svg>